<?xml version="1.0" encoding="UTF-8"?><svg xmlns="http://www.w3.org/2000/svg" xmlns:xlink="http://www.w3.org/1999/xlink" fill-opacity="1" color-rendering="auto" color-interpolation="auto" text-rendering="auto" stroke="black" stroke-linecap="square" width="607" stroke-miterlimit="10" shape-rendering="auto" stroke-opacity="1" fill="black" stroke-dasharray="none" font-weight="normal" stroke-width="1" height="289" font-family="'Dialog'" font-style="normal" stroke-linejoin="miter" font-size="12px" stroke-dashoffset="0" image-rendering="auto">
  <!--Generated by ySVG 2.6-->
  <defs id="genericDefs"/>
  <g>
    <defs id="defs1">
      <clipPath clipPathUnits="userSpaceOnUse" id="clipPath1">
        <path d="M0 0 L607 0 L607 289 L0 289 L0 0 Z"/>
      </clipPath>
      <clipPath clipPathUnits="userSpaceOnUse" id="clipPath2">
        <path d="M230 23 L837 23 L837 312 L230 312 L230 23 Z"/>
      </clipPath>
    </defs>
    <g fill="rgb(255,204,0)" text-rendering="geometricPrecision" shape-rendering="geometricPrecision" transform="matrix(1,0,0,1,-230,-23)" stroke="rgb(255,204,0)">
      <rect x="464" width="181" height="44" y="55" clip-path="url(#clipPath2)" stroke="none"/>
    </g>
    <g text-rendering="geometricPrecision" stroke-miterlimit="1.45" shape-rendering="geometricPrecision" transform="matrix(1,0,0,1,-230,-23)" stroke-linecap="butt">
      <rect fill="none" x="464" width="181" height="44" y="55" clip-path="url(#clipPath2)"/>
      <text x="511.1055" xml:space="preserve" y="81.1543" clip-path="url(#clipPath2)" font-family="sans-serif" stroke="none">Entity Mapped</text>
    </g>
    <g fill="rgb(255,153,0)" text-rendering="geometricPrecision" shape-rendering="geometricPrecision" transform="matrix(1,0,0,1,-230,-23)" stroke="rgb(255,153,0)">
      <rect x="707" y="55" clip-path="url(#clipPath2)" width="115" rx="4" ry="4" height="44" stroke="none"/>
    </g>
    <g text-rendering="geometricPrecision" stroke-miterlimit="1.45" shape-rendering="geometricPrecision" transform="matrix(1,0,0,1,-230,-23)" stroke-linecap="butt">
      <rect x="707" y="55" clip-path="url(#clipPath2)" fill="none" width="115" rx="4" ry="4" height="44"/>
      <text x="742.126" xml:space="preserve" y="81.1543" clip-path="url(#clipPath2)" font-family="sans-serif" stroke="none">System</text>
    </g>
    <g fill="rgb(255,204,0)" text-rendering="geometricPrecision" shape-rendering="geometricPrecision" transform="matrix(1,0,0,1,-230,-23)" stroke="rgb(255,204,0)">
      <rect x="464" width="181" height="44" y="150" clip-path="url(#clipPath2)" stroke="none"/>
    </g>
    <g text-rendering="geometricPrecision" stroke-miterlimit="1.45" shape-rendering="geometricPrecision" transform="matrix(1,0,0,1,-230,-23)" stroke-linecap="butt">
      <rect fill="none" x="464" width="181" height="44" y="150" clip-path="url(#clipPath2)"/>
      <text x="501.0244" xml:space="preserve" y="176.1543" clip-path="url(#clipPath2)" font-family="sans-serif" stroke="none">Synthetic Entity 1</text>
    </g>
    <g fill="rgb(255,204,0)" text-rendering="geometricPrecision" shape-rendering="geometricPrecision" transform="matrix(1,0,0,1,-230,-23)" stroke="rgb(255,204,0)">
      <rect x="464" width="181" height="44" y="253" clip-path="url(#clipPath2)" stroke="none"/>
    </g>
    <g text-rendering="geometricPrecision" stroke-miterlimit="1.45" shape-rendering="geometricPrecision" transform="matrix(1,0,0,1,-230,-23)" stroke-linecap="butt">
      <rect fill="none" x="464" width="181" height="44" y="253" clip-path="url(#clipPath2)"/>
      <text x="497.2246" xml:space="preserve" y="279.1543" clip-path="url(#clipPath2)" font-family="sans-serif" stroke="none">Synthetic Entity.. n</text>
    </g>
    <g fill="rgb(255,153,0)" text-rendering="geometricPrecision" shape-rendering="geometricPrecision" transform="matrix(1,0,0,1,-230,-23)" stroke="rgb(255,153,0)">
      <rect x="280" y="253" clip-path="url(#clipPath2)" width="115" rx="4" ry="4" height="44" stroke="none"/>
    </g>
    <g text-rendering="geometricPrecision" stroke-miterlimit="1.45" shape-rendering="geometricPrecision" transform="matrix(1,0,0,1,-230,-23)" stroke-linecap="butt">
      <rect x="280" y="253" clip-path="url(#clipPath2)" fill="none" width="115" rx="4" ry="4" height="44"/>
      <text x="320.1299" xml:space="preserve" y="279.1543" clip-path="url(#clipPath2)" font-family="sans-serif" stroke="none">CRUD</text>
      <path fill="none" d="M645 77 L698.9965 77" clip-path="url(#clipPath2)"/>
      <path d="M706.9965 77 L694.9965 72 L697.9965 77 L694.9965 82 Z" clip-path="url(#clipPath2)" stroke="none"/>
      <text x="666.5078" xml:space="preserve" y="51.1543" clip-path="url(#clipPath2)" font-family="sans-serif" stroke="none">API</text>
      <path fill="none" d="M502 99.0147 L502 141.9609" clip-path="url(#clipPath2)"/>
      <path d="M502 149.9609 L507 137.9609 L502 140.9609 L497 137.9609 Z" clip-path="url(#clipPath2)" stroke="none"/>
      <text x="356.7148" xml:space="preserve" y="154.1152" clip-path="url(#clipPath2)" font-family="sans-serif" stroke="none">synthetic_path</text>
      <path fill="none" d="M595 150.0265 L595 107.0264" clip-path="url(#clipPath2)"/>
      <path d="M595 99.0264 L590 111.0264 L595 108.0264 L600 111.0264 Z" clip-path="url(#clipPath2)" stroke="none"/>
      <path fill="none" d="M503 193.9704 L503 244.9766" clip-path="url(#clipPath2)"/>
      <path d="M503 252.9766 L508 240.9766 L503 243.9766 L498 240.9766 Z" clip-path="url(#clipPath2)" stroke="none"/>
      <text x="247.0098" xml:space="preserve" y="198.1387" clip-path="url(#clipPath2)" font-family="sans-serif" stroke="none">synthetic_type[parent_array_key] </text>
      <text x="320.6738" xml:space="preserve" y="212.1074" clip-path="url(#clipPath2)" font-family="sans-serif" stroke="none">processor</text>
      <path fill="none" d="M592 252.9697 L592 202.014" clip-path="url(#clipPath2)"/>
      <path d="M592 194.014 L587 206.014 L592 203.014 L597 206.014 Z" clip-path="url(#clipPath2)" stroke="none"/>
      <text x="667.1543" xml:space="preserve" y="172.6699" clip-path="url(#clipPath2)" font-family="sans-serif" stroke="none">synthetic_type[parent] </text>
      <text x="701.1797" xml:space="preserve" y="186.6387" clip-path="url(#clipPath2)" font-family="sans-serif" stroke="none">propagation</text>
      <path fill="none" d="M395.0082 275 L456 275" clip-path="url(#clipPath2)"/>
      <path d="M464 275 L452 270 L455 275 L452 280 Z" clip-path="url(#clipPath2)" stroke="none"/>
    </g>
  </g>
</svg>
